M48
METRIC,LZ
ICI,OFF
VER,1
FMAT,2
DETECT,ON
ATC,ON
T01C0.25
T02C0.9
%
T01
X001431Y00149
X001366Y00168
X00118Y001665
Y00151
X001651Y00177
X0018415
X00224Y00148
X002496Y00172
X002625Y001665
X00263Y00151
X00302Y001665
X003429Y00141
X00362
X00381
X00391Y001284
X003981Y001372
X00401Y00112
X0041Y00097
X00418Y00103
X00436Y00118
X004497Y0012
X00435Y00139
X00442Y00144
X00429Y001472
X00476Y00132
X00514Y0010
X00523Y00107
X00527Y00137
X00517Y0018555
X00498Y0020
Y00209
X00507
X00525
X00498Y00238
X00468Y00209
X00462Y0020
X00419Y00238
X0041
Y00219
X00387Y00238
X00373
X0035875Y00273
X00327
X00281Y00254
X00249
X00246Y002794
X001932Y002808
X00193Y002653
X00181Y00249
X00169
X0015Y00281
X0016195Y00297
X00169Y00367
X00205Y004318
X00301Y00342
X0032525Y00328
X003556Y00329
X003746Y00336
X003937Y00329
X0042685Y00328
X004572Y00329
X00475Y0033
X00495Y00329
X0052845Y00328
X005588Y003288
X00571Y00329
X005969
X0061455Y0032745
X0063005Y0032735
X006604Y00329
X006985
X006984Y00388
X006794Y0040
X00679Y00422
X00675Y00443
X006794Y00464
X00697Y00453
X006984Y00483
X006414Y00453
X006224Y00443
Y00422
X006414Y00411
X005968Y00435
X00578Y00464
X00597Y00483
X00539Y00453
X0052Y00422
X0054Y00411
X00569Y00379
X005778Y0040
X004952Y00388
X00476Y0040
X00448Y0038
X00439Y00411
X004192Y00422
Y00443
X004382Y00453
X004762Y00464
X004952Y00483
X003936
X003746Y00464
X003366Y00453
X003176Y00443
Y00422
X00336Y00411
X003746Y0040
X003936Y00388
X0039685Y00273
X004286
X0049845
X005302
X00588Y00246
X006318Y00273
X00725Y001482
Y001312
Y0010795
X007507Y00118
X00798Y001312
X0069
X0064275Y00118
X00617Y0010795
Y001312
Y00148
X00381Y00177
X00362
X00343
X00372Y00097
X002369Y00201
M06
T02
X0056515Y001016
Y00127
Y001524
Y001778
M00
